<?xml version="1.0" encoding="utf-8"?>
<!-- Generator: Adobe Illustrator 25.4.1, SVG Export Plug-In . SVG Version: 6.00 Build 0)  -->
<svg version="1.1" id="Layer_1" xmlns="http://www.w3.org/2000/svg" xmlns:xlink="http://www.w3.org/1999/xlink" x="0px" y="0px"
	 viewBox="0 0 1920 1080" style="enable-background:new 0 0 1920 1080;" xml:space="preserve">
<style type="text/css">
	.st0{fill:#F7931E;}
</style>
<g>
	<polygon class="st0" points="959.59,748.81 753.64,857.09 792.98,627.76 626.36,465.36 856.62,431.9 959.59,223.25 1062.56,431.9 
		1292.82,465.36 1126.2,627.76 1165.54,857.09 	"/>
	<path d="M959.59,224.38L1062,431.88l0.23,0.47l0.52,0.08l228.99,33.27l-165.7,161.52l-0.38,0.37l0.09,0.52l39.12,228.07
		L960.05,748.49l-0.47-0.24l-0.47,0.24L754.31,856.17l39.12-228.07l0.09-0.52l-0.38-0.37L627.44,465.7l228.99-33.27l0.52-0.08
		l0.23-0.47L959.59,224.38 M959.59,222.12l-103.3,209.32l-231,33.57l167.15,162.93L752.98,858l206.61-108.62L1166.2,858
		l-39.46-230.06l167.15-162.93l-231-33.57L959.59,222.12L959.59,222.12z"/>
</g>
</svg>
